<?xml version="1.0" encoding="UTF-8" standalone="no"?>
<svg width="14557px" height="4159px" viewBox="0 0 14557 4159" version="1.1" xmlns="http://www.w3.org/2000/svg" xmlns:xlink="http://www.w3.org/1999/xlink">
    <!-- Generator: Sketch 40.1 (33804) - http://www.bohemiancoding.com/sketch -->
    <title>logo_white</title>
    <desc>Created with Sketch.</desc>
    <defs></defs>
    <g id="Page-1" stroke="none" stroke-width="1" fill="none" fill-rule="evenodd">
        <g id="logo_white" fill="#FFFFFF">
            <g id="Page-1">
                <g id="logo">
                    <path d="M0.205151627,351.581256 C0.205151627,175.821605 142.013839,34.0799502 306.067025,34.0799502 C478.4619,34.0799502 609.148337,175.821605 609.148337,351.581256 L609.148337,2644.96123 L1840.93752,2644.96123 C2002.21014,2644.96123 2146.79939,2786.70288 2146.79939,2953.95803 C2146.79939,3126.88285 2007.77127,3254.45034 1840.93752,3254.45034 L356.11715,3254.45034 C125.330464,3254.45034 0.205151627,3087.19519 0.205151627,2891.5917 L0.205151627,351.581256 L0.205151627,351.581256 L0.205151627,351.581256 Z" id="Shape"></path>
                    <path d="M1629.61477,1253.05818 C1532.29508,1020.60187 1690.78715,805.154551 1913.23214,805.154551 C2052.26027,805.154551 2163.48277,881.695044 2219.09402,1040.4457 L2708.47302,2327.45992 C2716.8147,2350.13858 2725.15639,2355.80825 2736.27864,2355.80825 C2744.62033,2355.80825 2752.96202,2355.80825 2764.08427,2327.45992 L3225.65764,1040.4457 C3278.48833,890.199543 3389.71083,805.154551 3531.51951,805.154551 C3762.3062,805.154551 3915.23714,1031.9412 3815.13689,1258.72785 L2983.7487,3231.77168 C2797.45102,3676.84047 2561.1032,3960.32378 2391.48889,4073.7171 C2324.75539,4119.07443 2230.21627,4158.7621 2146.79939,4158.7621 C1985.52677,4158.7621 1849.27921,4051.03844 1849.27921,3872.44395 C1849.27921,3767.55513 1899.32933,3691.01464 1982.74621,3628.64831 C2116.21321,3532.26398 2288.60808,3362.174 2391.48889,3070.18619 L1629.61477,1253.05818 L1629.61477,1253.05818 L1629.61477,1253.05818 Z" id="Shape"></path>
                    <path d="M5708.69994,2500.38474 C5708.69994,3007.81986 5294.39613,3288.46834 4779.99207,3288.46834 C4362.9077,3288.46834 4095.9737,3166.57051 3931.92051,3024.82886 C3826.25914,2934.1142 3792.89239,2761.18938 3879.08982,2647.79606 C3968.06782,2525.89824 4118.2182,2497.54991 4265.58801,2593.93423 C4404.61613,2684.64889 4585.3527,2744.18038 4793.89488,2744.18038 C5024.68157,2744.18038 5133.12351,2659.13539 5133.12351,2534.40274 C5133.12351,2435.18358 5060.82888,2367.14758 4874.5312,2321.79025 C4713.25857,2284.93742 4718.8197,2290.60709 4546.42482,2245.24976 C4182.17114,2148.86544 3898.55376,1941.92262 3898.55376,1550.71565 C3898.55376,1060.28953 4285.05195,793.815218 4805.01713,793.815218 C5085.85394,793.815218 5375.03244,867.520879 5530.74394,997.923201 C5658.64982,1105.64686 5650.30813,1292.74584 5558.54957,1400.4695 C5469.57157,1499.68866 5319.42119,1513.86282 5172.05138,1437.32233 C5055.26776,1377.79083 4899.55626,1338.10317 4785.5532,1338.10317 C4563.1082,1338.10317 4468.56907,1423.14816 4468.56907,1533.70665 C4468.56907,1630.09098 4535.30257,1692.45731 4735.50307,1737.81464 L5052.48719,1811.5203 C5489.03551,1919.24395 5708.69994,2143.19577 5708.69994,2500.38474 L5708.69994,2500.38474 L5708.69994,2500.38474 Z" id="Shape"></path>
                    <path d="M6620.72444,3288.46834 C6070.17307,3288.46834 5819.92244,2902.93104 5819.92244,2395.49591 L5819.92244,606.716234 C5819.92244,430.956583 5947.82832,289.214928 6117.44263,289.214928 C6281.49582,289.214928 6414.96281,430.956583 6414.96281,606.716234 L6414.96281,915.713041 L6971.07531,915.713041 C7118.44512,915.713041 7246.351,1029.10636 7246.351,1187.85702 C7246.351,1338.10317 7118.44512,1451.4965 6971.07531,1451.4965 L6414.96281,1451.4965 L6414.96281,2384.15658 C6414.96281,2602.43873 6509.50194,2718.66689 6704.14131,2718.66689 C6801.461,2718.66689 6898.78069,2690.31856 6979.417,2667.63989 C7207.42312,2613.77806 7349.23181,2758.35455 7349.23181,2925.6097 C7349.23181,3024.82886 7299.18169,3129.71768 7162.93412,3192.08401 C7010.00319,3265.78967 6790.33875,3288.46834 6620.72444,3288.46834 L6620.72444,3288.46834 L6620.72444,3288.46834 Z" id="Shape"></path>
                    <path d="M9359.57849,2826.39054 C9359.57849,2931.27937 9331.77287,2985.1412 9253.91712,3039.00303 C9128.7918,3124.04802 8809.02712,3288.46834 8316.86756,3288.46834 C7671.77706,3288.46834 7379.818,2919.94004 7379.818,2491.88024 C7379.818,2106.34294 7641.19087,1751.9888 8294.62306,1751.9888 C8489.26243,1751.9888 8619.94887,1780.33713 8786.78262,1820.0248 L8786.78262,1698.12697 C8786.78262,1462.83583 8675.56012,1343.77284 8364.13712,1343.77284 C8208.42562,1343.77284 8047.153,1383.4605 7935.9305,1420.31333 C7682.89931,1502.52349 7527.18781,1369.28634 7527.18781,1185.02218 C7527.18781,1080.13336 7571.67681,972.409703 7721.82718,907.208542 C7846.9525,853.346713 8105.54481,793.815218 8375.25937,793.815218 C9000.88593,793.815218 9356.79793,1074.46369 9356.79793,1715.13597 L9356.79793,2826.39054 L9359.57849,2826.39054 L9359.57849,2826.39054 Z M8784.00206,2653.46573 L8784.00206,2245.24976 C8633.85168,2199.89243 8508.72637,2171.5441 8339.11206,2171.5441 C8099.98368,2171.5441 7952.61387,2293.44192 7952.61387,2466.36674 C7952.61387,2664.80506 8108.32537,2769.69388 8353.01487,2769.69388 C8597.70437,2772.52871 8736.73249,2687.48372 8784.00206,2653.46573 L8784.00206,2653.46573 L8784.00206,2653.46573 Z" id="Shape"></path>
                    <path d="M11581.2479,2347.30375 C11531.1978,2900.0962 11144.6996,3291.30317 10527.4147,3291.30317 C10074.1831,3291.30317 9723.83218,3095.69969 9593.14574,3004.98503 C9512.50943,2951.1232 9487.48437,2891.5917 9487.48437,2792.37255 L9487.48437,311.893593 C9487.48437,136.133941 9615.39024,0.0619531334 9785.00455,0.0619531334 C9949.05774,0.0619531334 10082.5247,136.133941 10082.5247,311.893593 L10082.5247,910.043375 C10215.9917,850.51188 10430.095,796.650051 10608.051,796.650051 C11194.7497,796.650051 11528.4172,1159.50869 11581.2479,1720.80564 C11595.1507,1888.06079 11595.1507,2182.88343 11581.2479,2347.30375 L11581.2479,2347.30375 L11581.2479,2347.30375 Z M10986.2075,1820.0248 C10969.5242,1539.37632 10836.0572,1374.956 10549.6592,1374.956 C10355.0199,1374.956 10157.5999,1448.66166 10082.5247,1496.85382 L10082.5247,2565.5859 C10154.8194,2627.95223 10355.0199,2707.32755 10513.5119,2707.32755 C10802.6904,2707.32755 10961.1825,2540.0724 10983.427,2245.24976 C10994.5492,2123.35194 10988.9881,1919.24395 10986.2075,1820.0248 L10986.2075,1820.0248 L10986.2075,1820.0248 Z" id="Shape"></path>
                    <path d="M12329.2192,320.398092 L12329.2192,2962.46253 C12329.2192,3135.38735 12204.0939,3274.29417 12031.699,3274.29417 C11870.4264,3274.29417 11734.1789,3132.55252 11734.1789,2962.46253 L11734.1789,320.398092 C11734.1789,144.638441 11862.0847,2.89678622 12031.699,2.89678622 C12195.7522,2.89678622 12329.2192,144.638441 12329.2192,320.398092 L12329.2192,320.398092 L12329.2192,320.398092 Z" id="Shape"></path>
                    <path d="M14553.6692,1947.59229 C14553.6692,2123.35194 14464.6912,2250.91943 14247.8073,2250.91943 L13066.0683,2250.91943 L13066.0683,2296.27676 C13066.0683,2582.5949 13280.1716,2735.67588 13577.6918,2735.67588 C13738.9644,2735.67588 13903.0176,2695.98822 14053.168,2636.45673 C14289.5158,2545.74207 14445.2273,2710.16239 14445.2273,2877.41754 C14445.2273,2962.46253 14414.6411,3058.84686 14295.0769,3132.55252 C14131.0237,3231.77168 13847.4063,3291.30317 13561.0084,3291.30317 C12946.5041,3291.30317 12534.9809,2897.26137 12490.4919,2330.29475 C12476.589,2154.5351 12482.1502,1905.06979 12490.4919,1763.32813 C12543.3225,1173.68285 12957.6264,796.650051 13538.7639,796.650051 C14142.146,796.650051 14556.4498,1210.53568 14556.4498,1848.37313 L14556.4498,1947.59229 L14553.6692,1947.59229 L14553.6692,1947.59229 Z M13930.8232,1839.86863 C13961.4094,1839.86863 13980.8733,1822.85963 13980.8733,1786.0068 C13994.7762,1508.19316 13825.1618,1323.92901 13535.9833,1323.92901 C13218.9992,1323.92901 13066.0683,1528.03699 13066.0683,1839.86863 L13930.8232,1839.86863 L13930.8232,1839.86863 L13930.8232,1839.86863 Z" id="Shape"></path>
                </g>
            </g>
        </g>
    </g>
</svg>